<?xml version="1.0" standalone="no"?>
<!DOCTYPE svg PUBLIC "-//W3C//DTD SVG 20010904//EN"
 "http://www.w3.org/TR/2001/REC-SVG-20010904/DTD/svg10.dtd">
<svg version="1.0" xmlns="http://www.w3.org/2000/svg"
 width="516.000000pt" height="220.000000pt" viewBox="0 0 516.000000 220.000000"
 preserveAspectRatio="xMidYMid meet">
<metadata>
Created by potrace 1.10, written by Peter Selinger 2001-2011
</metadata>
<g transform="translate(0.000000,220.000000) scale(0.100000,-0.100000)"
fill="#000000" stroke="none">
<path d="M3433 2190 c-79 -16 -142 -66 -174 -139 l-14 -31 -361 0 -362 0 -12
29 c-15 38 -46 66 -92 86 -32 13 -122 15 -673 15 -677 0 -675 0 -728 -48 -25
-22 -57 -85 -57 -111 0 -14 -9 -23 -26 -27 -14 -4 -46 -22 -70 -40 -59 -45
-110 -46 -193 -4 -68 35 -171 60 -248 60 -52 0 -305 -27 -334 -35 -29 -9 -70
-62 -79 -101 -11 -50 -7 -53 13 -11 18 36 63 86 81 88 6 1 27 3 47 4 19 1 40
5 46 8 6 4 67 11 134 15 92 7 138 5 183 -5 34 -7 72 -16 86 -19 14 -3 44 -16
67 -30 68 -39 137 -34 226 17 81 46 97 63 97 96 0 13 18 41 43 68 l43 44 657
1 c477 0 664 -3 680 -11 29 -16 76 -61 77 -75 0 -6 8 -18 18 -27 17 -15 57
-17 373 -17 270 0 359 3 370 13 8 6 27 31 42 54 31 49 75 84 140 112 46 20 52
20 94 6 68 -23 98 -41 127 -76 44 -52 59 -89 58 -148 0 -55 14 -105 28 -96 4
2 22 -6 41 -19 34 -23 34 -23 77 -5 81 35 147 47 248 44 125 -3 195 -24 246
-75 40 -38 65 -110 39 -110 -7 0 -10 -4 -7 -9 3 -5 -5 -39 -19 -77 -13 -38
-24 -63 -25 -57 0 7 -11 15 -25 19 -29 7 -31 24 -10 84 8 23 15 53 15 66 0 74
-202 120 -353 80 -107 -29 -195 -93 -237 -175 -11 -23 -22 -41 -24 -41 -6 0
11 68 27 115 24 67 -5 103 -95 119 -48 9 -54 20 -28 48 30 31 40 61 40 114 0
39 -4 47 -30 62 -16 9 -30 20 -30 23 0 22 -42 49 -78 51 -76 3 -152 -68 -152
-142 0 -31 -8 -45 -45 -81 -25 -24 -54 -61 -64 -82 l-19 -38 -7 60 c-10 89
-24 97 -130 83 -46 -6 -93 -17 -104 -24 -25 -15 -26 -28 -5 -169 9 -61 13
-113 9 -117 -4 -4 -19 8 -34 27 -14 19 -68 76 -119 128 -106 105 -94 102 -244
65 -76 -19 -78 -19 -78 -1 0 11 -9 28 -19 38 -21 21 -67 21 -190 0 -38 -6 -58
-6 -68 3 -8 6 -59 13 -115 15 -94 4 -102 3 -125 -19 -24 -22 -148 -204 -160
-234 -3 -8 -8 -14 -12 -14 -4 0 -42 53 -84 118 -42 64 -88 125 -102 135 -22
16 -40 18 -122 14 -85 -3 -98 -6 -115 -26 -11 -14 -18 -39 -18 -63 l0 -40 -46
46 c-49 50 -110 85 -158 93 -17 3 -38 9 -46 14 -12 7 -11 9 5 10 11 1 25 0 30
-1 9 -2 31 -2 78 1 68 4 381 -1 409 -6 12 -3 27 0 34 6 17 14 55 2 72 -22 18
-26 58 -24 77 4 13 21 21 23 77 19 35 -3 74 -4 88 -4 14 1 36 1 50 1 14 -1 50
-1 80 0 30 0 66 1 80 0 24 0 41 0 78 2 9 0 32 -2 50 -6 25 -5 39 -2 53 11 25
22 26 85 2 105 -23 19 -66 23 -92 10 -13 -7 -22 -8 -26 -1 -10 17 -51 11 -70
-10 -22 -25 -33 -25 -58 -2 -15 13 -39 17 -110 19 -70 1 -92 5 -99 17 -13 23
-60 20 -82 -5 -14 -17 -24 -20 -53 -14 -19 3 -44 12 -54 18 -15 9 -24 9 -39
-1 -27 -17 -85 -15 -100 3 -7 8 -23 15 -37 15 -13 0 -26 -7 -29 -15 -4 -10
-20 -15 -44 -15 -21 0 -43 7 -50 15 -16 19 -59 19 -66 0 -5 -11 -22 -15 -63
-15 -31 0 -62 -5 -68 -11 -8 -8 -13 -8 -17 0 -4 6 -19 11 -34 11 -15 0 -35 9
-45 20 -9 11 -21 20 -26 20 -9 0 -41 -24 -82 -62 -27 -26 -24 -72 6 -96 l25
-20 -43 -6 c-23 -4 -43 -7 -45 -6 -1 0 -24 -11 -51 -25 -61 -30 -118 -97 -145
-167 l-19 -53 -16 36 c-38 85 -102 143 -198 178 -89 32 -414 20 -457 -18 -17
-15 -18 -27 -11 -181 4 -91 9 -199 10 -240 5 -149 16 -245 31 -268 22 -33 57
-43 164 -48 92 -3 167 8 245 38 46 18 128 70 146 93 9 11 26 30 36 42 11 12
28 40 38 62 10 22 21 38 25 36 4 -3 20 -30 35 -60 38 -75 89 -131 137 -154 27
-12 36 -21 28 -26 -14 -9 -416 -9 -430 0 -5 3 -10 2 -10 -2 0 -5 -13 -14 -29
-20 -56 -21 -62 -50 -62 -300 l0 -226 26 -36 25 -36 -34 -8 c-21 -5 -38 -17
-45 -33 -16 -36 -14 -48 14 -74 l25 -24 391 2 c354 1 393 3 410 18 38 34 10
114 -39 114 -21 0 -21 0 -2 33 20 34 24 105 21 391 l-1 129 -35 33 -36 33 55
26 c59 28 113 83 144 146 l19 39 7 -47 c3 -25 6 -65 6 -89 0 -35 5 -47 31 -68
l31 -26 -6 -330 c-6 -327 -6 -329 15 -349 20 -18 36 -20 224 -21 242 -1 234
-4 237 103 1 40 2 81 3 92 1 11 -2 27 -7 36 -10 21 28 34 87 30 29 -2 48 4 67
18 14 12 35 21 46 21 28 0 55 29 49 51 -4 13 0 19 12 19 9 0 22 5 28 11 6 6 0
-20 -14 -57 -59 -162 -75 -242 -50 -262 24 -20 161 -60 182 -52 11 4 28 22 37
40 23 45 34 51 98 49 30 -1 60 -1 67 0 23 2 41 31 47 76 4 25 11 45 15 45 4 0
25 -39 45 -87 58 -133 69 -140 162 -104 27 10 64 25 82 32 19 6 40 22 49 35
14 22 9 33 -77 211 -50 103 -96 197 -102 208 -6 11 -20 38 -31 60 -45 91 -45
93 -15 99 7 2 20 6 28 9 8 3 33 11 55 17 85 25 101 55 75 134 -18 56 -60 197
-60 202 0 8 36 -32 105 -117 38 -46 85 -103 105 -126 l37 -42 7 -143 c15 -325
26 -381 84 -449 63 -73 166 -119 267 -119 50 0 148 25 195 49 72 37 138 125
155 206 12 57 13 57 39 39 20 -13 24 -21 19 -44 -7 -39 41 -90 78 -83 17 3 33
-3 52 -21 36 -33 76 -34 107 -1 18 19 33 25 57 23 43 -3 72 25 80 78 3 21 14
47 24 57 26 25 24 70 -6 105 -14 17 -23 37 -19 45 7 19 -20 73 -41 81 -9 3
-29 6 -44 6 -25 0 -51 15 -51 31 0 4 17 10 37 14 98 18 201 70 255 130 32 35
34 57 10 101 -9 18 -25 48 -36 68 -33 64 -48 64 -133 4 -21 -14 -52 -29 -69
-32 -29 -7 -30 -5 -27 21 4 26 8 28 51 28 41 0 48 3 59 27 12 23 18 26 52 23
52 -4 80 23 63 60 -6 14 -7 25 -2 25 5 0 10 10 12 23 3 14 7 4 12 -28 5 -27
31 -91 57 -142 77 -144 66 -185 -73 -287 -61 -44 -78 -61 -73 -74 43 -101 53
-152 45 -211 -5 -34 -18 -82 -30 -106 -26 -53 -102 -119 -161 -141 -42 -14
-163 -18 -184 -5 -10 6 -15 7 -34 10 -5 0 -16 7 -23 14 -7 7 -25 17 -39 24
-29 12 -43 4 -85 -50 -37 -47 -152 -112 -219 -124 -174 -32 -299 1 -411 111
-36 36 -72 62 -79 60 -7 -3 -15 -23 -18 -44 -7 -58 -56 -112 -102 -115 -5 -1
-20 -6 -32 -13 -13 -7 -23 -9 -23 -5 0 4 -4 3 -8 -2 -11 -16 -75 -35 -116 -35
-37 0 -96 26 -96 43 0 13 -52 57 -60 52 -5 -3 -34 -8 -66 -10 -62 -6 -94 -19
-94 -38 0 -21 -61 -78 -88 -83 -35 -6 -1836 -12 -1884 -6 -37 4 -86 41 -107
80 -7 14 -11 117 -11 320 0 228 -3 302 -12 309 -7 5 -51 15 -98 22 -95 14
-142 38 -164 86 -9 20 -19 122 -31 315 -18 312 -33 425 -33 255 -1 -201 23
-548 40 -580 33 -63 93 -95 194 -102 l74 -6 0 -297 c0 -291 0 -298 23 -340 16
-30 37 -51 67 -67 l43 -23 944 0 c770 0 950 2 976 14 29 12 75 56 102 99 7 11
30 16 76 19 63 4 67 3 82 -23 20 -37 58 -60 106 -66 31 -4 64 3 143 33 57 21
113 44 125 52 27 17 53 71 53 113 l0 32 29 -41 c54 -73 142 -123 259 -147 66
-14 94 -15 150 -6 128 20 220 66 290 146 l38 43 64 -31 c134 -66 298 -31 390
85 52 66 74 140 67 228 -6 66 -20 112 -44 141 -12 15 -9 20 30 42 73 43 145
115 158 157 16 53 6 93 -46 185 -61 107 -74 185 -45 269 35 102 23 160 -44
211 -111 84 -332 97 -489 28 l-58 -26 -22 22 c-13 11 -30 21 -39 21 -12 0 -14
10 -10 49 16 165 -135 295 -305 261z m131 -120 c7 -7 -2 -22 -28 -49 -21 -22
-35 -44 -32 -50 12 -18 24 -13 61 27 34 36 36 36 50 18 51 -67 -33 -187 -120
-173 -29 5 -38 -1 -96 -59 -66 -66 -90 -76 -121 -47 -31 28 -21 55 46 122 57
56 64 67 60 95 -11 68 65 142 135 132 19 -3 39 -10 45 -16z m-2408 -79 l-1
-58 -35 2 c-49 3 -48 3 -55 25 -8 25 10 50 36 50 12 0 19 7 19 20 0 13 7 20
18 20 16 0 19 -8 18 -59z m291 -4 c2 -52 1 -57 -18 -57 -18 0 -20 5 -18 38 2
21 0 43 -5 50 -10 16 2 34 22 30 12 -2 16 -18 19 -61z m161 0 c2 -46 0 -57
-13 -57 -8 0 -15 6 -16 13 0 6 -3 34 -5 60 -4 42 -2 48 13 45 14 -2 18 -15 21
-61z m322 3 c0 -53 -2 -60 -20 -60 -18 0 -20 7 -20 60 0 53 2 60 20 60 18 0
20 -7 20 -60z m-164 17 c4 -13 2 -23 -5 -25 -9 -3 -9 -7 0 -18 9 -11 9 -18 1
-26 -14 -14 -32 -2 -32 22 0 10 -6 20 -12 22 -10 4 -10 10 -1 31 14 30 38 27
49 -6z m-522 -6 c23 -25 13 -59 -20 -67 -30 -8 -54 11 -54 42 0 22 22 43 46
44 6 0 19 -9 28 -19z m147 -28 c6 -17 6 -30 0 -36 -13 -13 -31 0 -31 23 0 10
-5 22 -11 26 -8 4 -9 -3 -4 -25 5 -24 3 -31 -9 -31 -10 0 -16 9 -16 24 0 14
-5 28 -11 32 -8 5 -10 -3 -7 -25 4 -25 1 -31 -14 -31 -14 0 -18 8 -18 39 0 39
1 40 38 43 47 4 70 -7 83 -39z m137 30 c11 -10 23 -31 26 -46 6 -24 4 -28 -11
-25 -10 2 -19 12 -21 23 -7 36 -22 41 -22 7 0 -25 -4 -32 -19 -32 -17 0 -19 5
-14 38 9 53 27 64 61 35z m156 11 c8 -3 12 -12 10 -19 -3 -8 -12 -11 -20 -8
-9 3 -14 -1 -14 -12 0 -9 7 -16 18 -14 30 3 35 -1 22 -16 -20 -25 -59 -19 -72
11 -11 23 -10 29 11 45 26 22 24 21 45 13z m158 -22 c13 18 19 20 29 11 10
-10 6 -22 -22 -63 -19 -27 -39 -50 -45 -50 -20 0 -23 12 -10 32 12 16 11 24
-1 50 -13 25 -13 32 -2 39 10 6 17 1 25 -17 l11 -25 15 23z m185 14 c0 -1 3
-17 5 -36 3 -32 1 -35 -29 -37 -52 -4 -81 38 -47 71 12 13 54 14 71 2z m247 8
c8 -3 12 -12 10 -19 -3 -8 -12 -11 -20 -8 -8 3 -14 -1 -14 -11 0 -10 8 -16 21
-16 27 0 19 -24 -10 -28 -48 -7 -69 44 -29 72 26 18 22 18 42 10z m116 -35 c0
-16 0 -32 -1 -36 -1 -15 -58 -12 -73 3 -34 33 -7 74 43 66 26 -4 31 -9 31 -33z
m-310 6 c0 -14 5 -25 10 -25 6 0 10 11 10 25 0 18 5 25 20 25 17 0 20 -7 20
-40 0 -39 -1 -40 -33 -40 -18 0 -38 5 -45 12 -18 18 -15 68 3 68 9 0 15 -9 15
-25z m114 -30 c3 -9 -1 -18 -10 -22 -19 -7 -28 2 -21 22 8 19 23 19 31 0z
m995 -77 c17 -42 88 -636 79 -660 -5 -11 -29 -17 -92 -23 -47 -4 -90 -4 -95
-1 -6 4 -58 66 -117 139 -125 154 -181 217 -187 211 -2 -3 20 -84 50 -180 30
-97 53 -183 51 -192 -4 -20 -178 -76 -192 -62 -8 8 -55 200 -132 534 -14 60
-24 116 -22 124 2 10 30 21 78 33 128 31 126 32 228 -76 49 -52 113 -123 143
-159 55 -65 75 -81 65 -48 -6 20 -47 295 -49 332 -2 24 1 25 83 36 47 6 88 12
93 13 4 0 11 -9 16 -21z m-1940 -43 c56 -28 106 -81 135 -144 18 -39 21 -65
21 -171 0 -114 -2 -130 -26 -181 -53 -113 -135 -177 -239 -186 -184 -17 -331
152 -333 382 -1 148 46 246 143 299 91 49 204 50 299 1z m-674 -5 c138 -52
212 -181 203 -353 -4 -63 -11 -94 -32 -135 -52 -102 -160 -176 -294 -203 -84
-16 -258 -7 -280 15 -13 13 -19 75 -34 338 -9 178 -14 326 -10 329 4 4 54 14
112 23 138 20 257 15 335 -14z m1060 14 c21 -22 85 -117 144 -215 l49 -81 28
49 c55 95 155 243 171 251 17 10 193 4 205 -7 9 -8 -21 -674 -31 -684 -10 -10
-182 2 -201 13 -10 6 -8 49 9 201 11 106 19 194 17 197 -3 2 -33 -51 -67 -119
-34 -68 -67 -127 -73 -132 -6 -4 -36 -6 -66 -5 l-55 3 -63 120 c-66 126 -89
159 -79 115 3 -14 13 -100 23 -193 15 -146 16 -169 3 -181 -17 -16 -185 -31
-194 -16 -3 5 -12 139 -20 297 -8 158 -16 307 -19 330 -2 25 1 47 8 52 7 6 43
12 81 14 39 1 80 4 92 5 12 1 29 -5 38 -14z m859 -36 c7 -49 52 -468 62 -573
l6 -71 -106 -13 c-59 -8 -109 -11 -113 -8 -5 6 -52 417 -68 604 l-7 81 69 7
c37 4 73 8 78 10 6 2 24 4 42 4 30 1 32 -1 37 -41z m1124 -15 c52 -15 96 -33
99 -39 2 -7 -11 -66 -31 -131 -19 -65 -53 -181 -76 -258 -22 -77 -43 -147 -45
-155 -4 -13 9 -14 91 -12 53 2 100 0 105 -5 16 -16 23 -338 10 -428 -26 -181
-150 -287 -338 -286 -154 0 -262 78 -297 214 -11 42 -28 290 -31 442 l0 30 98
9 c53 5 100 7 103 4 3 -3 11 -103 18 -223 l12 -218 32 -28 c53 -48 136 -36
172 23 18 30 20 50 19 238 0 176 -2 200 -13 171 -7 -19 -17 -36 -23 -38 -13
-5 -185 45 -196 56 -5 5 6 57 23 117 17 60 45 155 61 212 55 193 92 317 96
325 6 10 7 10 111 -20z m-148 0 c-1 -14 -18 -75 -70 -253 -28 -96 -60 -208
-71 -249 -11 -41 -21 -76 -23 -78 -3 -4 -14 77 -41 312 -8 72 -17 147 -20 168
-3 21 -1 37 5 37 5 0 10 -4 10 -9 0 -5 14 -14 31 -20 39 -13 71 2 125 59 36
38 54 49 54 33z m762 -28 c73 -25 76 -34 44 -122 -14 -43 -28 -79 -31 -81 -2
-2 -24 4 -49 13 -66 25 -166 18 -202 -15 -38 -37 -55 -75 -56 -129 -1 -154
167 -212 307 -105 55 42 54 43 106 -54 l34 -64 -45 -39 c-25 -22 -74 -54 -110
-72 -60 -30 -72 -32 -165 -32 -95 0 -103 2 -163 34 -130 70 -192 176 -192 326
0 135 45 226 146 295 94 65 259 85 376 45z m-1962 -194 c0 -6 -4 -13 -10 -16
-5 -3 -10 1 -10 9 0 9 5 16 10 16 6 0 10 -4 10 -9z m1923 -23 c30 -15 13 -33
-33 -35 -44 -2 -63 -16 -57 -43 3 -11 -7 -15 -41 -16 -53 -2 -79 -22 -63 -51
7 -15 7 -25 -3 -38 -12 -16 -13 -15 -25 11 -18 45 -1 135 30 161 36 29 144 36
192 11z m127 -16 c0 -8 -9 -27 -21 -43 l-20 -29 20 0 c12 0 21 -7 21 -15 0
-11 -11 -15 -40 -15 -32 0 -40 4 -40 18 0 11 9 27 20 37 11 10 20 22 20 27 0
5 -9 6 -20 3 -15 -5 -20 -2 -20 12 0 14 8 18 40 18 27 0 40 -4 40 -13z m-2046
-29 c2 -21 5 -45 5 -53 2 -52 32 -289 40 -306 6 -14 23 -24 46 -28 l36 -7 -25
-42 c-35 -57 -116 -224 -116 -239 0 -7 -7 -3 -15 10 -11 15 -14 33 -10 56 5
22 1 44 -9 64 -9 17 -16 40 -16 50 0 10 -9 27 -21 38 -16 15 -24 16 -39 6 -27
-17 -30 -15 -30 12 0 32 -27 60 -49 50 -9 -4 -36 -7 -60 -6 -26 2 -53 -4 -67
-13 -13 -8 -34 -15 -48 -15 -26 0 -58 -34 -50 -54 2 -6 -6 -16 -18 -21 -25
-11 -36 -49 -19 -68 6 -8 6 -18 1 -27 -15 -23 -12 -86 4 -99 8 -7 14 -25 14
-40 -1 -43 10 -54 49 -48 27 5 34 3 29 -8 -3 -8 -1 -17 4 -20 24 -15 4 -20
-72 -17 -45 1 -84 5 -87 8 -3 3 -6 104 -6 223 0 227 -4 251 -44 251 -12 0 -16
11 -17 47 -1 27 -5 89 -9 138 l-7 90 39 -70 39 -70 73 -3 c42 -2 78 2 86 8 7
6 26 36 41 66 28 56 50 82 41 48 -3 -11 -8 -55 -12 -99 -4 -44 -8 -92 -10
-107 -6 -47 28 -67 135 -76 108 -10 127 -3 135 43 5 32 13 199 14 303 1 68 16
84 25 25z m1936 -31 c0 -11 -9 -27 -20 -37 -11 -10 -20 -22 -20 -27 0 -5 9 -6
20 -3 15 5 20 2 20 -12 0 -15 -8 -18 -42 -17 -23 1 -44 6 -45 11 -2 6 8 25 22
42 l27 31 -26 0 c-16 0 -26 6 -26 15 0 11 12 15 45 15 37 0 45 -3 45 -18z
m-501 -199 l21 -53 -65 0 c-36 0 -65 3 -65 8 0 12 19 80 48 172 l27 85 6 -80
c4 -44 16 -104 28 -132z m-1131 172 c-3 -3 10 -63 28 -133 17 -70 30 -130 27
-134 -2 -5 -13 -8 -23 -8 -21 0 -27 29 -34 150 -2 36 -7 73 -11 83 -8 18 -1
47 11 47 4 0 5 -2 2 -5z m1522 -27 c0 -7 -12 -25 -27 -40 l-27 -28 27 0 c17 0
27 -5 27 -15 0 -11 -11 -15 -40 -15 -32 0 -40 4 -40 18 0 11 9 27 20 37 26 23
25 35 -1 32 -12 -1 -24 4 -26 11 -3 8 9 12 41 12 29 0 46 -4 46 -12z m-2385
-525 l0 -242 105 -3 105 -3 0 -100 0 -100 -211 -3 c-164 -2 -213 0 -216 10 -6
22 9 665 16 677 5 8 39 11 104 9 l97 -3 0 -242z m952 197 c89 -170 273 -556
271 -569 -3 -14 -153 -79 -186 -80 -7 -1 -27 29 -44 66 -16 38 -43 96 -59 131
-16 35 -29 65 -29 67 0 2 -16 37 -35 78 -19 41 -35 80 -35 86 0 6 -4 11 -10
11 -5 0 -10 -1 -10 -2 0 -2 -14 -36 -30 -77 -17 -40 -30 -75 -30 -77 0 -2 25
-4 55 -4 l55 0 0 -57 c0 -32 -3 -75 -7 -96 l-6 -39 -86 4 -85 3 -16 -42 c-8
-23 -18 -45 -22 -48 -3 -4 -45 5 -92 19 -60 19 -86 31 -86 42 0 9 23 84 51
167 56 167 139 346 194 420 l36 48 91 -3 91 -3 24 -45z m1198 0 c22 -14 59
-32 82 -39 l43 -12 -17 -25 c-12 -19 -23 -24 -45 -22 -41 4 -88 -42 -88 -87 0
-24 -6 -38 -20 -45 -20 -10 -20 -8 -20 130 0 110 3 140 13 134 6 -4 30 -19 52
-34z m-435 7 c30 -8 67 -18 82 -21 l27 -6 -2 -149 c-3 -162 -13 -195 -62 -207
-38 -9 -89 4 -103 26 -8 13 -14 83 -18 202 -5 151 -4 180 7 176 8 -3 39 -12
69 -21z m-2220 -17 c11 -11 22 -30 25 -43 3 -12 5 -123 3 -246 -3 -220 -3
-223 -27 -242 -22 -18 -43 -19 -346 -19 l-324 0 -20 26 c-20 25 -21 39 -21
261 l0 234 25 24 24 25 321 0 c305 0 321 -1 340 -20z m881 -18 c-15 -28 -15
-27 14 -46 25 -16 27 -16 45 6 15 18 21 20 31 11 10 -10 9 -16 -5 -32 -17 -19
-17 -20 8 -36 34 -23 41 -50 21 -81 -16 -25 -16 -27 5 -41 17 -12 19 -18 9
-29 -10 -13 -14 -12 -30 2 -11 10 -20 15 -22 13 -1 -2 -9 -12 -17 -22 -12 -17
-11 -21 10 -37 19 -14 22 -22 14 -30 -9 -9 -17 -9 -34 0 -20 11 -25 9 -47 -19
-27 -34 -57 -40 -85 -15 -16 16 -19 15 -37 -7 -16 -19 -22 -21 -32 -12 -10 10
-9 16 4 31 16 17 15 20 -13 40 -29 22 -29 22 -40 2 -12 -22 -40 -27 -40 -7 0
7 6 19 13 26 10 10 7 16 -15 33 -34 24 -36 59 -7 96 l20 27 -20 9 c-12 5 -21
15 -21 22 0 22 20 27 40 9 17 -16 19 -15 30 6 10 19 10 24 -4 34 -18 14 -22
45 -4 45 6 0 19 -7 29 -16 16 -14 18 -14 28 5 19 34 47 44 79 27 26 -14 30
-13 46 6 23 26 43 10 27 -20z m1977 -64 c7 -7 12 -20 12 -30 0 -19 25 -25 35
-8 9 15 36 12 57 -7 21 -18 24 -53 6 -71 -6 -6 -10 -13 -7 -14 2 -2 18 -10 34
-18 18 -9 31 -25 33 -39 4 -27 -23 -61 -50 -61 -19 0 -24 -15 -8 -25 6 -3 10
-20 10 -36 0 -37 -40 -60 -71 -41 -26 17 -39 15 -39 -5 0 -21 -29 -53 -48 -53
-22 0 -52 30 -52 52 0 20 -20 24 -37 7 -17 -17 -57 -6 -70 21 -10 20 -10 29 2
47 19 29 19 33 -4 33 -64 0 -67 93 -4 105 10 2 19 4 21 4 1 1 -5 12 -14 26
-15 23 -15 27 0 51 23 34 41 39 70 21 25 -17 36 -13 36 13 0 36 61 55 88 28z
m-1510 -213 c7 -14 12 -27 12 -28 0 -2 -11 -4 -25 -5 -25 -2 -31 11 -19 42 9
23 19 20 32 -9z m-1294 -311 c20 -20 20 -38 0 -58 -14 -14 -61 -16 -401 -14
-384 3 -386 3 -400 25 -13 19 -12 24 6 42 21 21 30 21 400 21 332 0 382 -2
395 -16z"/>
<path d="M3446 2023 c-23 -23 -27 -34 -23 -68 4 -38 1 -43 -61 -107 -48 -49
-63 -71 -58 -84 6 -15 19 -6 79 53 68 67 74 70 110 66 46 -6 81 14 95 56 13
38 3 39 -28 6 -29 -31 -50 -32 -78 -2 -30 32 -28 50 9 81 30 26 30 26 6 26
-13 0 -37 -12 -51 -27z m31 -109 c-3 -3 -12 -4 -19 -1 -8 3 -5 6 6 6 11 1 17
-2 13 -5z"/>
<path d="M1097 1984 c-8 -8 1 -24 14 -24 5 0 9 7 9 15 0 15 -12 20 -23 9z"/>
<path d="M1202 1976 c1 -10 8 -17 13 -17 15 1 12 24 -3 29 -9 3 -13 -2 -10
-12z"/>
<path d="M1975 1980 c-8 -13 4 -32 16 -25 12 8 12 35 0 35 -6 0 -13 -4 -16
-10z"/>
<path d="M2337 1983 c-12 -11 -8 -23 8 -23 8 0 15 7 15 15 0 16 -12 20 -23 8z"/>
<path d="M1050 1658 c-45 -48 -49 -165 -10 -255 32 -72 88 -81 132 -20 20 28
23 43 23 134 0 99 -1 103 -29 132 -37 38 -85 42 -116 9z m80 -13 c0 4 7 2 14
-5 8 -6 20 -35 26 -63 14 -63 -1 -162 -28 -190 -28 -27 -65 -9 -86 42 -18 47
-21 148 -5 185 14 30 49 48 67 34 6 -6 12 -7 12 -3z"/>
<path d="M344 1583 c4 -54 9 -134 12 -179 l6 -81 48 8 c63 10 96 32 122 83 43
82 19 196 -52 244 -24 16 -47 22 -88 22 l-54 0 6 -97z m120 57 c49 -18 82
-137 55 -202 -15 -37 -71 -78 -107 -78 l-29 0 -6 83 c-4 45 -7 110 -7 145 l0
62 34 0 c19 0 46 -4 60 -10z"/>
<path d="M580 815 l0 -205 290 0 290 0 0 205 0 205 -290 0 -290 0 0 -205z
m412 174 c94 -1 128 -4 132 -14 2 -7 4 -87 3 -176 l-2 -164 -255 0 -255 0 -3
174 c-2 133 1 176 10 183 7 4 65 6 128 3 63 -3 172 -6 242 -6z"/>
<path d="M1973 1038 c-47 -59 -120 -177 -115 -185 4 -5 48 -37 99 -71 l92 -62
65 95 c36 52 66 99 66 104 0 8 -180 131 -192 131 -3 0 -10 -6 -15 -12z m85
-93 c28 -20 52 -38 52 -40 0 -3 -16 -30 -36 -60 -23 -34 -41 -52 -48 -47 -59
37 -96 66 -96 75 0 13 60 107 69 107 3 0 30 -16 59 -35z"/>
<path d="M1985 904 c-9 -14 -15 -27 -13 -28 56 -36 54 -36 76 -6 l21 28 -24
16 c-33 22 -40 20 -60 -10z"/>
<path d="M4017 974 c-4 -4 -7 -15 -7 -25 0 -29 -36 -43 -71 -28 -35 14 -48 5
-31 -21 22 -36 15 -60 -23 -76 -43 -18 -45 -30 -5 -37 35 -7 50 -48 31 -80
-18 -28 1 -44 29 -24 29 20 57 11 69 -25 12 -34 34 -33 39 1 5 33 43 47 75 26
27 -17 50 -4 28 18 -6 6 -11 24 -11 40 0 23 6 31 30 40 34 13 40 37 10 37 -11
0 -27 11 -36 25 -15 23 -15 27 0 50 15 23 15 26 1 31 -8 4 -22 1 -30 -6 -21
-18 -62 2 -67 31 -3 23 -19 35 -31 23z m63 -124 c27 -27 25 -66 -5 -95 -30
-30 -54 -31 -89 -4 -30 24 -34 63 -10 97 20 29 76 30 104 2z m-100 -126 c0 -2
-7 -4 -15 -4 -8 0 -15 4 -15 10 0 5 7 7 15 4 8 -4 15 -8 15 -10z m61 -27 c-7
-7 -14 -8 -21 -1 -6 6 -2 10 12 11 16 2 18 -1 9 -10z"/>
<path d="M3999 824 c-17 -21 0 -49 32 -49 18 0 25 6 27 24 6 38 -34 55 -59 25z"/>
<path d="M3004 679 c-4 -8 -3 -9 4 -5 7 4 12 1 12 -9 0 -10 -5 -13 -12 -9 -7
4 -8 3 -4 -5 9 -14 26 -5 26 14 0 19 -17 28 -26 14z"/>
<path d="M4391 524 c0 -11 3 -14 6 -6 3 7 2 16 -1 19 -3 4 -6 -2 -5 -13z"/>
</g>
</svg>
