<?xml version="1.0" standalone="no"?>
<!DOCTYPE svg PUBLIC "-//W3C//DTD SVG 20010904//EN"
 "http://www.w3.org/TR/2001/REC-SVG-20010904/DTD/svg10.dtd">
<svg version="1.0" xmlns="http://www.w3.org/2000/svg"
 width="300.000000pt" height="299.000000pt" viewBox="0 0 300.000000 299.000000"
 preserveAspectRatio="xMidYMid meet">
<metadata>
Created by potrace 1.10, written by Peter Selinger 2001-2011
</metadata>
<g transform="translate(0.000000,299.000000) scale(0.050000,-0.050000)"
fill="#000000" stroke="none">
<path d="M2801 5411 c-104 -104 -185 -193 -180 -197 41 -31 224 36 293 107
l77 79 939 -940 c516 -517 940 -940 943 -940 9 0 -69 214 -100 272 -16 32
-425 452 -907 933 l-876 875 -189 -189z"/>
<path d="M2820 5166 c-657 -52 -1290 -424 -1654 -972 -87 -131 -298 -569 -281
-585 18 -18 254 253 325 371 393 662 1010 1023 1755 1028 162 1 294 6 294 12
-1 5 -42 44 -92 85 -95 79 -102 80 -347 61z"/>
<path d="M3620 5063 c0 -29 264 -251 370 -312 671 -386 1125 -1243 1015 -1917
-24 -146 -10 -154 82 -44 69 83 73 95 73 234 -1 843 -535 1631 -1341 1979
-196 84 -199 85 -199 60z"/>
<path d="M2302 4819 l-148 -58 -886 -885 -887 -886 193 -194 c107 -107 196
-193 198 -190 3 2 -2 42 -11 89 -11 57 -9 85 6 85 12 0 -26 48 -84 107 l-105
106 955 944 c525 518 946 942 936 942 -11 -1 -86 -28 -167 -60z"/>
<path d="M3331 4395 c-16 -79 -130 -575 -282 -1225 -62 -264 -114 -488 -116
-498 -2 -11 120 -16 285 -13 328 5 313 19 196 -176 -158 -265 -428 -383 -875
-383 l-215 0 26 95 c14 52 40 158 57 235 18 77 77 334 132 570 56 237 106 451
112 477 10 45 16 47 179 40 l168 -7 21 84 c12 46 21 93 21 105 0 14 -99 21
-288 21 l-288 0 -31 -135 c-18 -74 -72 -310 -122 -525 -170 -742 -252 -1090
-264 -1128 -18 -60 802 -38 993 27 303 103 513 283 636 545 l74 157 164 -4
c191 -6 177 -14 195 111 l14 98 -161 -11 -162 -11 0 183 c0 213 -60 370 -187
492 -85 80 -95 75 -126 -75 -21 -103 -19 -123 17 -201 29 -61 42 -131 44 -238
l2 -151 -165 -3 c-94 -1 -165 6 -165 17 0 10 22 105 48 210 27 106 72 291 100
412 120 525 211 903 223 935 12 31 -2 35 -117 35 l-131 0 -12 -65z"/>
<path d="M5227 3251 c15 -86 35 -125 97 -185 l77 -75 -946 -947 -945 -946 137
51 c76 28 143 51 150 51 7 0 415 403 907 895 l896 894 -185 186 c-216 217
-214 216 -188 76z"/>
<path d="M881 3191 l-87 -89 12 -216 c45 -777 456 -1430 1141 -1814 117 -65
370 -172 408 -172 47 0 -250 254 -402 343 -620 364 -980 992 -982 1712 -1 179
-1 325 -2 325 0 0 -40 -40 -88 -89z"/>
<path d="M1100 2469 c0 -3 27 -76 60 -162 l60 -157 885 -885 885 -885 200 202
c111 112 182 197 160 192 -22 -6 -76 -16 -120 -24 -55 -9 -105 -37 -161 -92
l-81 -78 -944 947 c-519 521 -944 945 -944 942z"/>
<path d="M4933 2225 c-74 -85 -189 -240 -256 -343 -373 -582 -974 -907 -1683
-911 l-296 -1 93 -88 92 -87 184 13 c926 69 1637 592 1972 1450 58 147 48 144
-106 -33z"/>
</g>
</svg>
